REM DIRINDEX 1\6,1\2\7,1\2\8,1\2\9,1\3\10,1\3\11,1\4\12,1\4\13,1\4\14,1\5\15,1\5\16,1\5\17
REM DIRNAME folder01,folder02,folder03,folder04,folder05,folder06,folder07,folder08,folder09,folder10,folder11,folder12,folder13,folder14,folder15,folder16,folder17
TITLE ""
FILE "3Q_t2_0376-0391.mp3" MP3
  TRACK 01 AUDIO
    TITLE "7:cjc041_4543"
    INDEX 01 00:00:00
  TRACK 02 AUDIO
    TITLE "0:"
    INDEX 01 00:00:70
  TRACK 03 AUDIO
    TITLE "8:cjc041_4544"
    INDEX 01 00:01:54
  TRACK 04 AUDIO
    TITLE "0:"
    INDEX 01 00:02:47
  TRACK 05 AUDIO
    TITLE "9:cjc041_4545"
    INDEX 01 00:03:25
  TRACK 06 AUDIO
    TITLE "0:"
    INDEX 01 00:04:31
  TRACK 07 AUDIO
    TITLE "7:cjc041_4546"
    INDEX 01 00:06:18
  TRACK 08 AUDIO
    TITLE "0:"
    INDEX 01 00:07:41
  TRACK 09 AUDIO
    TITLE "8:cjc041_4547"
    INDEX 01 00:08:21
  TRACK 10 AUDIO
    TITLE "0:"
    INDEX 01 00:09:20
  TRACK 11 AUDIO
    TITLE "9:cjc041_4548"
    INDEX 01 00:10:04
  TRACK 12 AUDIO
    TITLE "0:"
    INDEX 01 00:11:29
  TRACK 13 AUDIO
    TITLE "7:cjc041_4549"
    INDEX 01 00:13:14
  TRACK 14 AUDIO
    TITLE "0:"
    INDEX 01 00:14:29
  TRACK 15 AUDIO
    TITLE "8:cjc041_4550"
    INDEX 01 00:15:09
  TRACK 16 AUDIO
    TITLE "0:"
    INDEX 01 00:16:71
  TRACK 17 AUDIO
    TITLE "9:cjc041_4551"
    INDEX 01 00:17:49
  TRACK 18 AUDIO
    TITLE "0:"
    INDEX 01 00:18:64
  TRACK 19 AUDIO
    TITLE "7:cjc041_4552"
    INDEX 01 00:20:49
  TRACK 20 AUDIO
    TITLE "0:"
    INDEX 01 00:21:62
  TRACK 21 AUDIO
    TITLE "8:cjc041_4553"
    INDEX 01 00:22:44
  TRACK 22 AUDIO
    TITLE "0:"
    INDEX 01 00:23:55
  TRACK 23 AUDIO
    TITLE "9:cjc041_4554"
    INDEX 01 00:24:35
  TRACK 24 AUDIO
    TITLE "0:"
    INDEX 01 00:25:52
  TRACK 25 AUDIO
    TITLE "7:cjc041_4555"
    INDEX 01 00:27:36
  TRACK 26 AUDIO
    TITLE "0:"
    INDEX 01 00:28:49
  TRACK 27 AUDIO
    TITLE "8:cjc041_4556"
    INDEX 01 00:29:29
  TRACK 28 AUDIO
    TITLE "0:"
    INDEX 01 00:30:22
  TRACK 29 AUDIO
    TITLE "9:cjc041_4557"
    INDEX 01 00:31:10
  TRACK 30 AUDIO
    TITLE "0:"
    INDEX 01 00:32:29
  TRACK 31 AUDIO
    TITLE "7:cjc041_4558"
    INDEX 01 00:34:06
  TRACK 32 AUDIO
    TITLE "0:"
    INDEX 01 00:35:25
  TRACK 33 AUDIO
    TITLE "8:cjc041_4559"
    INDEX 01 00:35:74
  TRACK 34 AUDIO
    TITLE "0:"
    INDEX 01 00:36:74
  TRACK 35 AUDIO
    TITLE "9:cjc041_4560"
    INDEX 01 00:37:52
  TRACK 36 AUDIO
    TITLE "0:"
    INDEX 01 00:38:71
  TRACK 37 AUDIO
    TITLE "7:cjc041_4561"
    INDEX 01 00:40:48
  TRACK 38 AUDIO
    TITLE "0:"
    INDEX 01 00:41:61
  TRACK 39 AUDIO
    TITLE "8:cjc041_4562"
    INDEX 01 00:42:43
  TRACK 40 AUDIO
    TITLE "0:"
    INDEX 01 00:43:44
  TRACK 41 AUDIO
    TITLE "9:cjc041_4563"
    INDEX 01 00:44:22
  TRACK 42 AUDIO
    TITLE "0:"
    INDEX 01 00:45:33
  TRACK 43 AUDIO
    TITLE "7:cjc041_4564"
    INDEX 01 00:47:13
  TRACK 44 AUDIO
    TITLE "0:"
    INDEX 01 00:48:32
  TRACK 45 AUDIO
    TITLE "8:cjc041_4565"
    INDEX 01 00:49:10
  TRACK 46 AUDIO
    TITLE "0:"
    INDEX 01 00:50:13
  TRACK 47 AUDIO
    TITLE "9:cjc041_4566"
    INDEX 01 00:50:68
  TRACK 48 AUDIO
    TITLE "0:"
    INDEX 01 00:52:10
  TRACK 49 AUDIO
    TITLE "7:cjc041_4567"
    INDEX 01 00:53:68
  TRACK 50 AUDIO
    TITLE "0:"
    INDEX 01 00:55:08
  TRACK 51 AUDIO
    TITLE "8:cjc041_4568"
    INDEX 01 00:55:65
  TRACK 52 AUDIO
    TITLE "0:"
    INDEX 01 00:57:03
  TRACK 53 AUDIO
    TITLE "9:cjc041_4569"
    INDEX 01 00:57:54
  TRACK 54 AUDIO
    TITLE "0:"
    INDEX 01 00:58:71
  TRACK 55 AUDIO
    TITLE "7:cjc041_4570"
    INDEX 01 01:00:57
  TRACK 56 AUDIO
    TITLE "0:"
    INDEX 01 01:01:68
  TRACK 57 AUDIO
    TITLE "8:cjc041_4571"
    INDEX 01 01:02:48
  TRACK 58 AUDIO
    TITLE "0:"
    INDEX 01 01:03:59
  TRACK 59 AUDIO
    TITLE "9:cjc041_4572"
    INDEX 01 01:04:41
  TRACK 60 AUDIO
    TITLE "0:"
    INDEX 01 01:05:56
  TRACK 61 AUDIO
    TITLE "7:cjc041_4573"
    INDEX 01 01:07:37
  TRACK 62 AUDIO
    TITLE "0:"
    INDEX 01 01:08:52
  TRACK 63 AUDIO
    TITLE "8:cjc041_4574"
    INDEX 01 01:09:28
  TRACK 64 AUDIO
    TITLE "0:"
    INDEX 01 01:10:49
  TRACK 65 AUDIO
    TITLE "9:cjc041_4575"
    INDEX 01 01:11:25
  TRACK 66 AUDIO
    TITLE "0:"
    INDEX 01 01:12:42
  TRACK 67 AUDIO
    TITLE "7:cjc041_4576"
    INDEX 01 01:14:19
  TRACK 68 AUDIO
    TITLE "0:"
    INDEX 01 01:15:35
  TRACK 69 AUDIO
    TITLE "8:cjc041_4577"
    INDEX 01 01:16:11
  TRACK 70 AUDIO
    TITLE "0:"
    INDEX 01 01:17:20
  TRACK 71 AUDIO
    TITLE "9:cjc041_4578"
    INDEX 01 01:17:71
  TRACK 72 AUDIO
    TITLE "0:"
    INDEX 01 01:19:13
  TRACK 73 AUDIO
    TITLE "7:cjc041_4579"
    INDEX 01 01:20:67
  TRACK 74 AUDIO
    TITLE "0:"
    INDEX 01 01:22:07
  TRACK 75 AUDIO
    TITLE "8:cjc041_4580"
    INDEX 01 01:22:56
  TRACK 76 AUDIO
    TITLE "0:"
    INDEX 01 01:25:02
  TRACK 77 AUDIO
    TITLE "9:cjc041_4581"
    INDEX 01 01:25:53
  TRACK 78 AUDIO
    TITLE "0:"
    INDEX 01 01:26:64
  TRACK 79 AUDIO
    TITLE "7:cjc041_4582"
    INDEX 01 01:28:45
  TRACK 80 AUDIO
    TITLE "0:"
    INDEX 01 01:29:56
  TRACK 81 AUDIO
    TITLE "8:cjc041_4583"
    INDEX 01 01:30:32
  TRACK 82 AUDIO
    TITLE "0:"
    INDEX 01 01:32:35
  TRACK 83 AUDIO
    TITLE "9:cjc041_4584"
    INDEX 01 01:33:13
  TRACK 84 AUDIO
    TITLE "0:"
    INDEX 01 01:34:24
  TRACK 85 AUDIO
    TITLE "7:cjc041_4585"
    INDEX 01 01:36:07
  TRACK 86 AUDIO
    TITLE "0:"
    INDEX 01 01:37:26
  TRACK 87 AUDIO
    TITLE "8:cjc041_4586"
    INDEX 01 01:38:00
  TRACK 88 AUDIO
    TITLE "0:"
    INDEX 01 01:39:21
  TRACK 89 AUDIO
    TITLE "9:cjc041_4587"
    INDEX 01 01:39:74
  TRACK 90 AUDIO
    TITLE "0:"
    INDEX 01 01:41:18
  TRACK 91 AUDIO
    TITLE "7:cjc041_4588"
    INDEX 01 01:43:00
  TRACK 92 AUDIO
    TITLE "0:"
    INDEX 01 01:44:19
  TRACK 93 AUDIO
    TITLE "8:cjc041_4589"
    INDEX 01 01:44:70
  TRACK 94 AUDIO
    TITLE "0:"
    INDEX 01 01:47:07
  TRACK 95 AUDIO
    TITLE "9:cjc041_4590"
    INDEX 01 01:47:60
  TRACK 96 AUDIO
    TITLE "0:"
    INDEX 01 01:49:02
